<?xml version="1.0" encoding="utf-8"?>
<!-- Generator: Adobe Illustrator 19.0.0, SVG Export Plug-In . SVG Version: 6.00 Build 0)  -->
<svg version="1.1" id="Layer_1" xmlns="http://www.w3.org/2000/svg" xmlns:xlink="http://www.w3.org/1999/xlink" x="0px" y="0px"
	 viewBox="-41 164.9 512 512" style="enable-background:new -41 164.9 512 512;" xml:space="preserve">
<style type="text/css">
	.st0{fill:#231F20;}
	.st1{fill:#FFFFFF;}
	.st2{fill:#D1D1D1;}
</style>
<circle class="st0" cx="215" cy="420.9" r="256"/>
<path class="st0" d="M470.6,406.6L350,286c-2,0.6-7-1.7-9.2-1.3c-51.7,8.6-101.7,0-151.7,13.8c-24.1,6.9-25.9,36.2-34.5,55.2
	c-12.1,34.5-10.3,72.4-25.9,105.2c-10.3,22.4-34.5,36.2-43.1,62.1c-2.9,10.8-2.7,24.4-6,34.7l121,120.9c4.7,0.3,9.5,0.4,14.3,0.4
	c141.4,0,256-114.6,256-256C471,416.1,470.9,411.3,470.6,406.6z"/>
<g>
	<path class="st1" d="M322,274.4H108c-21.8,0-39.5,17.7-39.5,39.5v214.1c0,21.8,17.7,39.5,39.5,39.5h105.6l0.2-104.7h-27.2
		c-3.5,0-6.4-2.9-6.4-6.4l-0.1-33.8c0-3.6,2.9-6.4,6.4-6.4h27.2v-32.6c0-37.9,23.1-58.5,56.9-58.5h27.7c3.5,0,6.4,2.9,6.4,6.4v28.5
		c0,3.5-2.9,6.4-6.4,6.4l-17,0c-18.4,0-21.9,8.7-21.9,21.5v28.2h40.4c3.8,0,6.8,3.4,6.4,7.2l-4,33.8c-0.4,3.2-3.1,5.7-6.4,5.7h-36.2
		l-0.2,104.7H322c21.8,0,39.5-17.7,39.5-39.5V313.8C361.5,292,343.9,274.4,322,274.4L322,274.4z"/>
	<polygon class="st1" points="213.5,567.4 213.7,462.7 213.3,462.7 213.3,567.4 	"/>
</g>
<path class="st2" d="M322,274.4H213.3v141.7h0.3v-32.6c0-37.9,23.1-58.5,56.9-58.5h27.7c3.5,0,6.4,2.9,6.4,6.4v28.5
	c0,3.5-2.9,6.4-6.4,6.4l-17,0c-18.4,0-21.9,8.7-21.9,21.5v28.2h40.4c3.8,0,6.8,3.4,6.4,7.2l-4,33.8c-0.4,3.2-3.1,5.7-6.4,5.7h-36.2
	l-0.2,104.7H322c21.8,0,39.5-17.7,39.5-39.5V313.8C361.5,292,343.9,274.4,322,274.4z"/>
</svg>
