<?xml version="1.0" encoding="utf-8"?>
<!-- Generator: Adobe Illustrator 19.0.0, SVG Export Plug-In . SVG Version: 6.00 Build 0)  -->
<svg version="1.1" id="Layer_1" xmlns="http://www.w3.org/2000/svg" xmlns:xlink="http://www.w3.org/1999/xlink" x="0px" y="0px"
	 viewBox="-41 164.9 512 512" style="enable-background:new -41 164.9 512 512;" xml:space="preserve">
<style type="text/css">
	.st0{fill:#231F20;}
	.st1{fill:#FFFFFF;}
	.st2{fill:#D1D1D1;}
</style>
<circle class="st0" cx="215" cy="425.3" r="198.3"/>
<g>
	<path class="st1" d="M322,274.4H108c-21.8,0-39.5,17.7-39.5,39.5v214.1c0,21.8,17.7,39.5,39.5,39.5h105.6l0.2-104.7h-27.2
		c-3.5,0-6.4-2.9-6.4-6.4l-0.1-33.8c0-3.6,2.9-6.4,6.4-6.4h27.2v-32.6c0-37.9,23.1-58.5,56.9-58.5h27.7c3.5,0,6.4,2.9,6.4,6.4v28.5
		c0,3.5-2.9,6.4-6.4,6.4l-17,0c-18.4,0-21.9,8.7-21.9,21.5v28.2h40.4c3.8,0,6.8,3.4,6.4,7.2l-4,33.8c-0.4,3.2-3.1,5.7-6.4,5.7h-36.2
		l-0.2,104.7H322c21.8,0,39.5-17.7,39.5-39.5V313.8C361.5,292,343.9,274.4,322,274.4L322,274.4z"/>
	<polygon class="st1" points="213.5,567.4 213.7,462.7 213.3,462.7 213.3,567.4 	"/>
</g>
<path class="st2" d="M322,274.4H213.3v141.7h0.3v-32.6c0-37.9,23.1-58.5,56.9-58.5h27.7c3.5,0,6.4,2.9,6.4,6.4v28.5
	c0,3.5-2.9,6.4-6.4,6.4l-17,0c-18.4,0-21.9,8.7-21.9,21.5v28.2h40.4c3.8,0,6.8,3.4,6.4,7.2l-4,33.8c-0.4,3.2-3.1,5.7-6.4,5.7h-36.2
	l-0.2,104.7H322c21.8,0,39.5-17.7,39.5-39.5V313.8C361.5,292,343.9,274.4,322,274.4z"/>
</svg>
