<?xml version="1.0" encoding="utf-8"?>
<!-- Generator: Adobe Illustrator 19.0.0, SVG Export Plug-In . SVG Version: 6.00 Build 0)  -->
<svg version="1.1"
	 id="svg2" xmlns:cc="http://creativecommons.org/ns#" xmlns:sodipodi="http://sodipodi.sourceforge.net/DTD/sodipodi-0.dtd" xmlns:rdf="http://www.w3.org/1999/02/22-rdf-syntax-ns#" xmlns:inkscape="http://www.inkscape.org/namespaces/inkscape" xmlns:svg="http://www.w3.org/2000/svg" xmlns:dc="http://purl.org/dc/elements/1.1/"
	 xmlns="http://www.w3.org/2000/svg" xmlns:xlink="http://www.w3.org/1999/xlink" x="0px" y="0px" viewBox="-197 320.9 200 200"
	 style="enable-background:new -197 320.9 200 200;" xml:space="preserve">
<style type="text/css">
	.st0{fill:#E1E8ED;}
	.st1{opacity:0.1;enable-background:new    ;}
	.st2{fill:#231F20;}
</style>
<g id="layer1" transform="translate(0,-852.36218)">
	<path id="path5742" class="st0" d="M-97,1183.3c-49.7,0-90,40.3-90,90c0,49.7,40.3,90,90,90c2,0,3.9-0.2,5.8-0.3
		c6.6-0.4,12.9-1.6,19-3.4c5.7-1.6,11.1-3.8,16.3-6.4c24.9-12.8,42.9-36.8,47.6-65.3c0.8-4.7,1.3-9.6,1.3-14.6
		c0-3.7-0.3-7.2-0.7-10.8c-0.1-0.7-0.2-1.4-0.3-2.1C-14.3,1216.8-51.7,1183.3-97,1183.3z"/>
</g>
<g id="layer3">
	<path id="path5744" class="st1" d="M-8.3,435.5l-63.9-63.9l-22.9,13.2c0,0-0.4,3.6-1,7.6c-0.6,4-1.3,8.5-1.9,10.3
		c-0.7,1.8-2.4,9.9-3.9,18.1c-0.8,4.1-1.5,8.2-2,11.5s-0.8,5.8-0.7,6.8c0.1,1.9-0.8,9.9-1.8,17.4s-2,14.6-2,14.6l36.3,36.3
		c5.7-1.6,11.1-3.8,16.3-6.4C-31,488-13,464-8.3,435.5z"/>
</g>
<g id="layer4">
	<path id="path5490" class="st2" d="M-108.5,447.9v-23h-7.8h-7.8v-8.7v-8.7h7.7h7.7l0.1-7.9c0.1-8.3,0.1-9,0.7-11.7
		c1.9-9.5,8.6-15.6,18.5-16.9c2.7-0.4,11.9-0.2,16.5,0.4l0.6,0.1v7.7v7.7l-6.2,0c-6,0-6.2,0-7.1,0.3c-2.8,0.8-4.2,2.3-4.8,5.1
		c-0.2,1-0.2,1.6-0.2,8.1l0,7h8.7h8.7l0,0.3c0,0.3-2,16-2.1,16.7l-0.1,0.4h-7.6h-7.6v23v23h-9h-9L-108.5,447.9L-108.5,447.9z"/>
</g>
</svg>
